<mxfile host="Electron" modified="2024-05-13T08:52:22.780Z" agent="Mozilla/5.0 (Windows NT 10.0; Win64; x64) AppleWebKit/537.36 (KHTML, like Gecko) draw.io/24.2.5 Chrome/120.0.6099.109 Electron/28.1.0 Safari/537.36" etag="6KjhmbBD6Sx636KCEv22" version="24.2.5" type="device">
  <diagram name="Страница — 1" id="qMCrtSS0S8jQNbmV_LA3">
    <mxGraphModel dx="1802" dy="868" grid="1" gridSize="10" guides="1" tooltips="1" connect="1" arrows="1" fold="1" page="1" pageScale="1" pageWidth="827" pageHeight="1169" math="0" shadow="0">
      <root>
        <mxCell id="0" />
        <mxCell id="1" parent="0" />
        <mxCell id="ugMpgjCxAsMsw8Gphag9-6" value="" style="rounded=0;whiteSpace=wrap;html=1;" vertex="1" parent="1">
          <mxGeometry x="-160" y="140" width="260" height="560" as="geometry" />
        </mxCell>
        <mxCell id="M4JfEq2-ljyZ6Jmgg2bU-1" value="eShop" style="rounded=0;whiteSpace=wrap;html=1;" parent="1" vertex="1">
          <mxGeometry x="374" y="10" width="80" height="60" as="geometry" />
        </mxCell>
        <mxCell id="M4JfEq2-ljyZ6Jmgg2bU-2" value="SOURCE LAYER&lt;div&gt;&lt;br&gt;&lt;div&gt;&lt;br&gt;&lt;/div&gt;&lt;/div&gt;" style="text;whiteSpace=wrap;html=1;align=center;" parent="1" vertex="1">
          <mxGeometry x="-37.92" y="100" width="120" height="40" as="geometry" />
        </mxCell>
        <mxCell id="M4JfEq2-ljyZ6Jmgg2bU-3" value="STORAGE LAYER&lt;div&gt;&lt;br&gt;&lt;/div&gt;" style="text;whiteSpace=wrap;html=1;align=center;" parent="1" vertex="1">
          <mxGeometry x="354" y="80" width="120" height="40" as="geometry" />
        </mxCell>
        <mxCell id="M4JfEq2-ljyZ6Jmgg2bU-4" value="BUSINESS LAYER" style="text;whiteSpace=wrap;html=1;align=center;" parent="1" vertex="1">
          <mxGeometry x="670" y="80" width="120" height="40" as="geometry" />
        </mxCell>
        <mxCell id="M4JfEq2-ljyZ6Jmgg2bU-14" value="&lt;div&gt;&lt;b&gt;&lt;font style=&quot;font-size: 18px;&quot; face=&quot;Times New Roman&quot;&gt;&lt;br&gt;&lt;/font&gt;&lt;/b&gt;&lt;/div&gt;&lt;b&gt;&lt;font style=&quot;font-size: 18px;&quot; face=&quot;Times New Roman&quot;&gt;SALES&lt;/font&gt;&lt;/b&gt;" style="strokeWidth=2;html=1;shape=mxgraph.flowchart.database;whiteSpace=wrap;" parent="1" vertex="1">
          <mxGeometry x="-140" y="150" width="120" height="120" as="geometry" />
        </mxCell>
        <mxCell id="ugMpgjCxAsMsw8Gphag9-21" style="edgeStyle=orthogonalEdgeStyle;rounded=0;orthogonalLoop=1;jettySize=auto;html=1;" edge="1" parent="1" source="M4JfEq2-ljyZ6Jmgg2bU-15" target="ugMpgjCxAsMsw8Gphag9-4">
          <mxGeometry relative="1" as="geometry" />
        </mxCell>
        <mxCell id="M4JfEq2-ljyZ6Jmgg2bU-15" value="&lt;div&gt;&lt;font style=&quot;font-size: 14px;&quot; face=&quot;Times New Roman&quot;&gt;&lt;b&gt;&lt;br&gt;&lt;/b&gt;&lt;/font&gt;&lt;/div&gt;&lt;div&gt;&lt;font style=&quot;font-size: 14px;&quot; face=&quot;Times New Roman&quot;&gt;&lt;b&gt;&lt;br&gt;&lt;/b&gt;&lt;/font&gt;&lt;/div&gt;&lt;div&gt;&lt;font style=&quot;font-size: 14px;&quot; face=&quot;Times New Roman&quot;&gt;&lt;b&gt;WAREHOUSE&lt;/b&gt;&lt;/font&gt;&lt;/div&gt;" style="strokeWidth=2;html=1;shape=mxgraph.flowchart.database;whiteSpace=wrap;" parent="1" vertex="1">
          <mxGeometry x="-140" y="330" width="120" height="120" as="geometry" />
        </mxCell>
        <mxCell id="M4JfEq2-ljyZ6Jmgg2bU-16" value="&lt;b&gt;&lt;font style=&quot;font-size: 18px;&quot; face=&quot;Times New Roman&quot;&gt;BI&lt;/font&gt;&lt;/b&gt;" style="image;html=1;image=img/lib/clip_art/finance/Pie_Chart_128x128.png" parent="1" vertex="1">
          <mxGeometry x="680" y="120" width="120" height="120" as="geometry" />
        </mxCell>
        <mxCell id="M4JfEq2-ljyZ6Jmgg2bU-18" value="" style="sketch=0;pointerEvents=1;shadow=0;dashed=0;html=1;strokeColor=none;fillColor=#505050;labelPosition=center;verticalLabelPosition=bottom;verticalAlign=top;outlineConnect=0;align=center;shape=mxgraph.office.services.excel_services;" parent="1" vertex="1">
          <mxGeometry x="682" y="330" width="120" height="100" as="geometry" />
        </mxCell>
        <mxCell id="M4JfEq2-ljyZ6Jmgg2bU-20" value="" style="sketch=0;outlineConnect=0;fontColor=#232F3E;gradientColor=none;fillColor=#000000;strokeColor=none;dashed=0;verticalLabelPosition=bottom;verticalAlign=top;align=center;html=1;fontSize=12;fontStyle=0;aspect=fixed;pointerEvents=1;shape=mxgraph.aws4.rds_mysql_instance_alt;" parent="1" vertex="1">
          <mxGeometry x="680" y="525.5" width="119" height="119" as="geometry" />
        </mxCell>
        <mxCell id="M4JfEq2-ljyZ6Jmgg2bU-22" value="" style="sketch=0;pointerEvents=1;shadow=0;dashed=0;html=1;strokeColor=none;fillColor=#505050;labelPosition=center;verticalLabelPosition=bottom;verticalAlign=top;outlineConnect=0;align=center;shape=mxgraph.office.users.call_center_agent;" parent="1" vertex="1">
          <mxGeometry x="-142.5" y="526.5" width="122.5" height="118" as="geometry" />
        </mxCell>
        <mxCell id="M4JfEq2-ljyZ6Jmgg2bU-23" value="&lt;font face=&quot;Times New Roman&quot; style=&quot;font-size: 18px;&quot;&gt;&lt;b&gt;CRM&lt;/b&gt;&lt;/font&gt;" style="text;html=1;align=center;verticalAlign=middle;resizable=0;points=[];autosize=1;strokeColor=none;fillColor=none;" parent="1" vertex="1">
          <mxGeometry x="-116.25" y="660" width="70" height="40" as="geometry" />
        </mxCell>
        <mxCell id="ugMpgjCxAsMsw8Gphag9-4" value="" style="aspect=fixed;sketch=0;html=1;dashed=0;whitespace=wrap;fillColor=#2875E2;strokeColor=#ffffff;points=[[0.005,0.63,0],[0.1,0.2,0],[0.9,0.2,0],[0.5,0,0],[0.995,0.63,0],[0.72,0.99,0],[0.5,1,0],[0.28,0.99,0]];shape=mxgraph.kubernetes.icon2;kubernetesLabel=1;prIcon=api" vertex="1" parent="1">
          <mxGeometry x="30.000000000000007" y="365" width="52.08" height="50" as="geometry" />
        </mxCell>
        <mxCell id="ugMpgjCxAsMsw8Gphag9-7" value="&lt;font style=&quot;font-size: 18px;&quot; face=&quot;Times New Roman&quot;&gt;&lt;b&gt;OLTP&lt;/b&gt;&lt;/font&gt;" style="text;html=1;align=center;verticalAlign=middle;resizable=0;points=[];autosize=1;strokeColor=none;fillColor=none;" vertex="1" parent="1">
          <mxGeometry x="-110" y="100" width="70" height="40" as="geometry" />
        </mxCell>
        <mxCell id="ugMpgjCxAsMsw8Gphag9-10" value="&lt;font face=&quot;Times New Roman&quot; style=&quot;font-size: 24px;&quot;&gt;&lt;b style=&quot;&quot;&gt;ETL/ELT&lt;/b&gt;&lt;/font&gt;" style="text;html=1;align=center;verticalAlign=middle;resizable=0;points=[];autosize=1;strokeColor=none;fillColor=none;rotation=-15;" vertex="1" parent="1">
          <mxGeometry x="160" y="300" width="120" height="40" as="geometry" />
        </mxCell>
        <mxCell id="ugMpgjCxAsMsw8Gphag9-11" value="" style="shape=cylinder3;whiteSpace=wrap;html=1;boundedLbl=1;backgroundOutline=1;size=15;" vertex="1" parent="1">
          <mxGeometry x="340" y="287.5" width="140" height="185" as="geometry" />
        </mxCell>
        <mxCell id="ugMpgjCxAsMsw8Gphag9-12" value="&lt;font style=&quot;font-size: 14px;&quot; face=&quot;Times New Roman&quot;&gt;&lt;b&gt;DW&lt;/b&gt;&lt;/font&gt;" style="text;html=1;align=center;verticalAlign=middle;resizable=0;points=[];autosize=1;strokeColor=none;fillColor=none;" vertex="1" parent="1">
          <mxGeometry x="385" y="287.5" width="50" height="30" as="geometry" />
        </mxCell>
        <mxCell id="ugMpgjCxAsMsw8Gphag9-15" value="" style="shape=flexArrow;endArrow=classic;html=1;rounded=0;entryX=0;entryY=0.5;entryDx=0;entryDy=0;entryPerimeter=0;exitX=1.004;exitY=0.43;exitDx=0;exitDy=0;exitPerimeter=0;" edge="1" parent="1" source="ugMpgjCxAsMsw8Gphag9-6" target="ugMpgjCxAsMsw8Gphag9-11">
          <mxGeometry width="50" height="50" relative="1" as="geometry">
            <mxPoint x="150" y="400" as="sourcePoint" />
            <mxPoint x="360" y="430" as="targetPoint" />
          </mxGeometry>
        </mxCell>
        <mxCell id="ugMpgjCxAsMsw8Gphag9-16" value="" style="shape=flexArrow;endArrow=classic;html=1;rounded=0;exitX=0;exitY=0.5;exitDx=0;exitDy=0;" edge="1" parent="1" source="M4JfEq2-ljyZ6Jmgg2bU-16" target="ugMpgjCxAsMsw8Gphag9-11">
          <mxGeometry width="50" height="50" relative="1" as="geometry">
            <mxPoint x="660" y="270" as="sourcePoint" />
            <mxPoint x="670" y="250" as="targetPoint" />
          </mxGeometry>
        </mxCell>
        <mxCell id="ugMpgjCxAsMsw8Gphag9-17" value="" style="shape=flexArrow;endArrow=classic;html=1;rounded=0;width=13;endSize=7.62;entryX=1;entryY=0;entryDx=0;entryDy=131.25;entryPerimeter=0;" edge="1" parent="1" source="M4JfEq2-ljyZ6Jmgg2bU-20" target="ugMpgjCxAsMsw8Gphag9-11">
          <mxGeometry width="50" height="50" relative="1" as="geometry">
            <mxPoint x="230" y="405" as="sourcePoint" />
            <mxPoint x="500" y="450" as="targetPoint" />
          </mxGeometry>
        </mxCell>
        <mxCell id="ugMpgjCxAsMsw8Gphag9-19" style="edgeStyle=orthogonalEdgeStyle;rounded=0;orthogonalLoop=1;jettySize=auto;html=1;exitX=1;exitY=0.5;exitDx=0;exitDy=0;exitPerimeter=0;entryX=0.5;entryY=0;entryDx=0;entryDy=0;entryPerimeter=0;" edge="1" parent="1" source="M4JfEq2-ljyZ6Jmgg2bU-14" target="ugMpgjCxAsMsw8Gphag9-4">
          <mxGeometry relative="1" as="geometry" />
        </mxCell>
        <mxCell id="ugMpgjCxAsMsw8Gphag9-20" style="edgeStyle=orthogonalEdgeStyle;rounded=0;orthogonalLoop=1;jettySize=auto;html=1;entryX=0.5;entryY=1;entryDx=0;entryDy=0;entryPerimeter=0;" edge="1" parent="1" source="M4JfEq2-ljyZ6Jmgg2bU-22" target="ugMpgjCxAsMsw8Gphag9-4">
          <mxGeometry relative="1" as="geometry" />
        </mxCell>
        <mxCell id="ugMpgjCxAsMsw8Gphag9-23" value="" style="sketch=0;outlineConnect=0;fontColor=#232F3E;gradientColor=none;fillColor=#000000;strokeColor=none;dashed=0;verticalLabelPosition=bottom;verticalAlign=top;align=center;html=1;fontSize=12;fontStyle=0;aspect=fixed;pointerEvents=1;shape=mxgraph.aws4.application_load_balancer;" vertex="1" parent="1">
          <mxGeometry x="354" y="330" width="60" height="60" as="geometry" />
        </mxCell>
        <mxCell id="ugMpgjCxAsMsw8Gphag9-24" value="" style="html=1;verticalLabelPosition=bottom;align=center;labelBackgroundColor=#ffffff;verticalAlign=top;strokeWidth=2;strokeColor=#000000;shadow=0;dashed=0;shape=mxgraph.ios7.icons.storage;" vertex="1" parent="1">
          <mxGeometry x="390" y="410" width="66" height="50" as="geometry" />
        </mxCell>
        <mxCell id="ugMpgjCxAsMsw8Gphag9-25" value="" style="shape=flexArrow;endArrow=classic;html=1;rounded=0;entryX=1;entryY=0.5;entryDx=0;entryDy=0;entryPerimeter=0;" edge="1" parent="1" source="M4JfEq2-ljyZ6Jmgg2bU-18" target="ugMpgjCxAsMsw8Gphag9-11">
          <mxGeometry width="50" height="50" relative="1" as="geometry">
            <mxPoint x="690" y="323.75" as="sourcePoint" />
            <mxPoint x="530" y="301.25" as="targetPoint" />
          </mxGeometry>
        </mxCell>
      </root>
    </mxGraphModel>
  </diagram>
</mxfile>
